<?xml version="1.0" encoding="UTF-8" standalone="no"?>
<!-- Created with Inkscape (http://www.inkscape.org/) -->

<svg
   xmlns:sketch="http://www.bohemiancoding.com/sketch/ns"
   xmlns:dc="http://purl.org/dc/elements/1.1/"
   xmlns:cc="http://creativecommons.org/ns#"
   xmlns:rdf="http://www.w3.org/1999/02/22-rdf-syntax-ns#"
   xmlns:svg="http://www.w3.org/2000/svg"
   xmlns="http://www.w3.org/2000/svg"
   xmlns:sodipodi="http://sodipodi.sourceforge.net/DTD/sodipodi-0.dtd"
   xmlns:inkscape="http://www.inkscape.org/namespaces/inkscape"
   width="713.82684"
   height="265.24338"
   viewBox="0 0 188.86669 70.178978"
   version="1.1"
   id="svg4596"
   inkscape:version="0.92.1 unknown"
   sodipodi:docname="logo_cast_inkscape.svg">
  <defs
     id="defs4590" />
  <sodipodi:namedview
     id="base"
     pagecolor="#ffffff"
     bordercolor="#666666"
     borderopacity="1.0"
     inkscape:pageopacity="0.0"
     inkscape:pageshadow="2"
     inkscape:zoom="0.98994949"
     inkscape:cx="311.23424"
     inkscape:cy="184.28208"
     inkscape:document-units="mm"
     inkscape:current-layer="layer1"
     showgrid="false"
     fit-margin-top="5"
     fit-margin-left="5"
     fit-margin-right="5"
     fit-margin-bottom="5"
     inkscape:window-width="1600"
     inkscape:window-height="837"
     inkscape:window-x="0"
     inkscape:window-y="30"
     inkscape:window-maximized="1"
     units="px" />
  <metadata
     id="metadata4593">
    <rdf:RDF>
      <cc:Work
         rdf:about="">
        <dc:format>image/svg+xml</dc:format>
        <dc:type
           rdf:resource="http://purl.org/dc/dcmitype/StillImage" />
        <dc:title></dc:title>
      </cc:Work>
    </rdf:RDF>
  </metadata>
  <g
     inkscape:label="Layer 1"
     inkscape:groupmode="layer"
     id="layer1"
     transform="translate(-52.639914,-178.34259)">
    <g
       id="g5147"
       transform="translate(132.69443,81.835175)">
      <path
         style="display:inline;fill:#3151cf;fill-opacity:1;stroke:none;stroke-width:0.03118098"
         sodipodi:nodetypes="cccccccccccc"
         inkscape:connector-curvature="0"
         id="path4156"
         d="m -53.061856,165.05766 c -0.685982,-0.12473 -1.933221,-0.34299 -2.806288,-0.46771 -2.089126,-0.28063 -4.490062,-1.18489 -7.265169,-2.68156 -5.862025,-3.11811 -10.227362,-7.82643 -13.189556,-14.18736 -3.211641,-6.82863 -3.211641,-18.98921 0,-25.81785 4.240614,-9.07367 11.848774,-15.21633 21.078345,-17.02481 3.679356,-0.71718 9.634921,-0.74836 13.563727,-0.0312 5.238403,0.90425 7.327532,1.77732 11.412236,4.67715 10.663889,7.48344 15.372229,20.64181 12.098229,33.55074 -0.65481,2.52566 -2.93102,7.26517 -4.64597,9.6661 -3.36754,4.70833 -9.104847,9.22957 -14.000263,10.97571 -3.741719,1.3096 -12.503576,2.05794 -16.245291,1.34078 z" />
      <circle
         r="17.953869"
         cy="115.7842"
         cx="-29.698706"
         id="path4542"
         style="opacity:1;fill:#3151cf;fill-opacity:1;stroke:none;stroke-width:0.67857146;stroke-linecap:round;stroke-linejoin:round;stroke-miterlimit:4;stroke-dasharray:none;stroke-opacity:1;paint-order:normal" />
      <path
         inkscape:connector-curvature="0"
         id="path4203"
         d="m -34.241912,164.39269 c -0.836147,-0.20904 -2.341208,-0.75253 -3.386389,-1.1706 -2.466629,-1.08699 -11.998683,-6.43832 -15.008805,-8.48688 l -2.341205,-1.54686 -1.37964,1.25421 c -1.337833,1.21242 -1.37964,1.21242 -2.215786,0.45988 -1.463251,-1.29602 -5.267712,-7.39988 -7.232653,-11.45518 -2.383013,-5.05867 -5.560365,-13.92182 -7.943377,-22.03242 -1.045183,-3.51182 -1.881327,-6.56374 -1.881327,-6.77278 0,-0.25084 0.836144,-0.83614 1.881327,-1.33783 l 1.839519,-0.91976 1.630481,1.88133 c 13.587356,15.38506 13.127477,14.96699 15.51049,14.25627 2.090364,-0.62711 4.055306,-2.88471 4.389763,-4.97506 0.167227,-0.87796 0.627107,-5.81121 1.086988,-10.99531 1.086987,-12.37494 1.045183,-12.24952 3.219159,-12.709412 0.961567,-0.20903 2.00675,-0.25084 2.341208,-0.12542 0.29265,0.12542 1.003371,1.881332 1.505061,3.929892 2.717469,10.32639 6.856388,21.57253 10.535428,28.38712 1.128791,2.09036 2.048558,4.09711 2.048558,4.47338 0,0.33445 -0.501688,1.04517 -1.128801,1.54687 l -1.128794,0.87795 1.003374,3.42819 c 0.543491,1.88133 1.797711,5.68578 2.801081,8.44506 1.17061,3.13555 1.92313,6.06206 2.09037,7.73435 0.20903,2.50843 0.12541,2.84289 -0.87795,4.0553 -0.79434,0.96157 -1.71411,1.42145 -3.219161,1.7559 -2.341208,0.50169 -2.132171,0.50169 -4.138919,0.0418 z"
         style="display:inline;fill:#fcfcfc;stroke:#000000;stroke-width:1.29556978;stroke-linecap:round;stroke-linejoin:round;stroke-miterlimit:4;stroke-dasharray:none;stroke-opacity:1;paint-order:normal" />
      <g
         id="text4601"
         style="font-style:normal;font-variant:normal;font-weight:normal;font-stretch:normal;font-size:10.58333302px;line-height:125%;font-family:FreeSans;-inkscape-font-specification:FreeSans;letter-spacing:0px;word-spacing:0px;display:inline;fill:#000000;fill-opacity:1;stroke:none;stroke-width:0.26458332px;stroke-linecap:butt;stroke-linejoin:miter;stroke-opacity:1"
         transform="matrix(0.96847956,-0.5317087,0.5317087,0.96847956,-140.64604,-103.08506)"
         aria-label="ez">
        <path
           id="path4537"
           style="font-style:normal;font-variant:normal;font-weight:500;font-stretch:normal;font-size:19.7555542px;font-family:Montserrat;-inkscape-font-specification:'Montserrat Medium';stroke-width:0.26458332px"
           d="m -36.496375,226.18093 q 2.528711,0 3.793066,1.44216 1.284111,1.44216 1.284111,4.04989 0,0.51364 -0.01975,0.77046 h -7.803444 q 0.256822,1.12607 1.047044,1.778 0.809978,0.63218 1.975555,0.63218 0.809978,0 1.540934,-0.29633 0.750711,-0.31609 1.303866,-0.889 l 1.382889,1.44215 q -0.790222,0.86925 -1.936044,1.34338 -1.126067,0.47414 -2.508956,0.47414 -1.619955,0 -2.864555,-0.67169 -1.224844,-0.67169 -1.896533,-1.87678 -0.671689,-1.22485 -0.671689,-2.80529 0,-1.58044 0.671689,-2.80529 0.691444,-1.22484 1.916289,-1.89653 1.224844,-0.69145 2.785533,-0.69145 z m 2.726266,4.54378 q -0.03951,-1.16558 -0.770466,-1.85702 -0.730956,-0.69144 -1.936045,-0.69144 -1.126066,0 -1.896533,0.69144 -0.750711,0.67169 -0.928511,1.85702 z"
           inkscape:connector-curvature="0" />
        <path
           id="path4539"
           style="font-style:normal;font-variant:normal;font-weight:500;font-stretch:normal;font-size:19.7555542px;font-family:Montserrat;-inkscape-font-specification:'Montserrat Medium';stroke-width:0.26458332px"
           d="m -29.899255,226.27971 h 8.810977 v 1.69898 l -5.808133,6.7564 5.966177,0.0197 v 2.09409 l -9.166577,-0.0197 v -1.69898 l 5.808133,-6.7564 -5.610577,-0.0197 z"
           inkscape:connector-curvature="0" />
      </g>
      <path
         inkscape:connector-curvature="0"
         id="path4169"
         d="m -32.151551,155.61317 c 0,-2.04855 -0.08361,-3.76266 -0.209036,-3.76266 -0.459881,0 -8.98856,4.38977 -8.98856,4.64061 0,0.25084 7.650728,2.75928 8.695907,2.84289 0.376266,0.0418 0.501689,-0.96157 0.501689,-3.72084 z"
         style="display:inline;fill:#000000;fill-opacity:1;stroke:#000000;stroke-width:1.00340402;stroke-miterlimit:4;stroke-dasharray:none;stroke-opacity:1" />
      <path
         sodipodi:nodetypes="cccccccccccccc"
         d="m -33.103884,113.9411 v 4.70813 h 4.708142 c 0,-2.60517 -2.102954,-4.70813 -4.708142,-4.70813 z m 0,-6.27753 v 3.13876 c 4.331492,0 7.846902,3.51546 7.846902,7.8469 h 3.13874 c 0,-6.07347 -4.91214,-10.98566 -10.985642,-10.98566 z m 0,-6.27749 v 3.13874 c 7.799812,0 14.124402,6.32456 14.124402,14.12441 h 3.13877 c 0,-9.54183 -7.73703,-17.26315 -17.263172,-17.26315 z"
         id="cast"
         sketch:type="MSShapeGroup"
         inkscape:connector-curvature="0"
         style="fill:#ffffff;fill-opacity:1;stroke:#ffffff;stroke-width:0.48740882;stroke-miterlimit:4;stroke-dasharray:none;stroke-opacity:1" />
    </g>
    <g
       aria-label="Turns"
       style="font-style:normal;font-variant:normal;font-weight:600;font-stretch:normal;font-size:10.58333302px;line-height:125%;font-family:Montserrat;-inkscape-font-specification:'Montserrat Semi-Bold';letter-spacing:0px;word-spacing:0px;fill:#000000;fill-opacity:1;stroke:#000000;stroke-width:1.26499999;stroke-linecap:butt;stroke-linejoin:miter;stroke-miterlimit:4;stroke-dasharray:none;stroke-opacity:1"
       id="text4500"
       transform="translate(4.8108515,5.6126601)">
      <path
         d="m 116.85372,197.48443 h 24.765 v 5.67267 h -9.05933 v 23.96067 h -6.68867 V 203.1571 h -9.017 z"
         style="font-style:normal;font-variant:normal;font-weight:600;font-stretch:normal;font-size:42.33333206px;font-family:Montserrat;-inkscape-font-specification:'Montserrat Semi-Bold';stroke:#000000;stroke-width:1.26499999;stroke-miterlimit:4;stroke-dasharray:none;stroke-opacity:1"
         id="path4502"
         inkscape:connector-curvature="0" />
      <path
         d="m 165.67133,204.34243 v 22.77534 h -6.477 v -4.02167 q -2.32834,4.27567 -7.62,4.27567 -3.76767,0 -6.01134,-2.32834 -2.20133,-2.37066 -2.20133,-6.39233 v -14.30867 h 6.51933 v 12.446 q 0,2.159 1.143,3.38667 1.143,1.22767 3.13267,1.22767 2.32833,-0.0423 3.683,-1.651 1.35467,-1.60867 1.35467,-4.14867 v -11.26067 z"
         style="font-style:normal;font-variant:normal;font-weight:600;font-stretch:normal;font-size:42.33333206px;font-family:Montserrat;-inkscape-font-specification:'Montserrat Semi-Bold';stroke:#000000;stroke-width:1.26499999;stroke-miterlimit:4;stroke-dasharray:none;stroke-opacity:1"
         id="path4504"
         inkscape:connector-curvature="0" />
      <path
         d="m 178.50494,208.44877 q 1.18534,-2.11667 3.09034,-3.21734 1.905,-1.10066 4.445,-1.143 v 6.13834 q -0.33867,-0.0423 -1.016,-0.0423 -3.00567,0 -4.78367,1.651 -1.73567,1.60867 -1.73567,4.318 v 10.96434 h -6.51933 v -22.77534 h 6.51933 z"
         style="font-style:normal;font-variant:normal;font-weight:600;font-stretch:normal;font-size:42.33333206px;font-family:Montserrat;-inkscape-font-specification:'Montserrat Semi-Bold';stroke:#000000;stroke-width:1.26499999;stroke-miterlimit:4;stroke-dasharray:none;stroke-opacity:1"
         id="path4506"
         inkscape:connector-curvature="0" />
      <path
         d="m 203.99027,204.08843 q 3.81,0 6.05367,2.37067 2.286,2.37067 2.286,6.35 v 14.30867 H 205.8106 V 214.7141 q 0,-2.159 -1.22766,-3.38667 -1.18534,-1.27 -3.25967,-1.27 -2.413,0.0423 -3.81,1.69334 -1.397,1.60866 -1.397,4.14866 v 11.21834 h -6.51933 v -22.77534 h 6.51933 v 3.97934 q 2.37067,-4.14867 7.874,-4.23334 z"
         style="font-style:normal;font-variant:normal;font-weight:600;font-stretch:normal;font-size:42.33333206px;font-family:Montserrat;-inkscape-font-specification:'Montserrat Semi-Bold';stroke:#000000;stroke-width:1.26499999;stroke-miterlimit:4;stroke-dasharray:none;stroke-opacity:1"
         id="path4508"
         inkscape:connector-curvature="0" />
      <path
         d="m 232.30796,211.0311 q -1.86267,-1.05833 -3.683,-1.60867 -1.82033,-0.59266 -3.25967,-0.59266 -1.18533,0 -1.905,0.42333 -0.71966,0.42333 -0.71966,1.27 0,0.93133 0.97366,1.43933 0.97367,0.508 3.175,1.143 2.413,0.71967 3.97934,1.43934 1.56633,0.67733 2.70933,2.07433 1.143,1.35467 1.143,3.59833 0,3.38667 -2.62467,5.29167 -2.58233,1.86267 -6.64633,1.86267 -2.794,0 -5.37633,-0.80434 -2.58234,-0.84666 -4.48733,-2.37066 l 2.11666,-4.40267 q 1.73567,1.35467 3.85233,2.11667 2.159,0.71966 4.064,0.71966 1.31234,0 2.07434,-0.42333 0.80433,-0.46567 0.80433,-1.35467 0,-0.97366 -1.016,-1.524 -0.97367,-0.55033 -3.175,-1.18533 -2.32833,-0.67733 -3.89467,-1.35467 -1.524,-0.67733 -2.62466,-2.032 -1.10067,-1.397 -1.10067,-3.59833 0,-3.38667 2.54,-5.24933 2.54,-1.86267 6.43467,-1.86267 2.32833,0 4.65666,0.67733 2.32834,0.635 4.23334,1.86267 z"
         style="font-style:normal;font-variant:normal;font-weight:600;font-stretch:normal;font-size:42.33333206px;font-family:Montserrat;-inkscape-font-specification:'Montserrat Semi-Bold';stroke:#000000;stroke-width:1.26499999;stroke-miterlimit:4;stroke-dasharray:none;stroke-opacity:1"
         id="path4510"
         inkscape:connector-curvature="0" />
    </g>
  </g>
</svg>
